<svg viewBox="0 0 480 382" fill="none" xmlns="http://www.w3.org/2000/svg">
<g clip-path="url(#clip0_45_85)">
<path d="M65.377 381.5C101.484 381.5 130.754 379.269 130.754 376.517C130.754 373.765 101.484 371.534 65.377 371.534C29.2703 371.534 0 373.765 0 376.517C0 379.269 29.2703 381.5 65.377 381.5Z" fill="#F2F2F2"/>
<path d="M118.45 138.783C122.145 135.025 127.082 133.885 129.473 136.235C131.864 138.585 130.809 143.535 127.113 147.294C125.657 148.815 123.857 149.965 121.865 150.648L106.011 166.374L98.7834 158.783L115.183 144.088C115.833 142.085 116.953 140.266 118.451 138.785L118.45 138.783Z" fill="#E9C5BA"/>
<path d="M67.7383 125.804L84.3635 162.661L110.912 148.301L120.413 153.34C120.413 153.34 98.7126 189.597 83.8504 185.47C68.9881 181.343 42.6038 143.917 47.358 132.367C52.1123 120.816 67.7395 125.804 67.7395 125.804L67.7383 125.804Z" fill="#2F672F"/>
<path d="M60.4483 371.441H72.5711L78.3378 324.716H60.4459L60.4483 371.441Z" fill="#E9C5BA"/>
<path d="M101.982 371.166C102.36 371.801 102.559 373.851 102.559 374.59C102.559 375.68 102.125 376.726 101.354 377.497C100.583 378.268 99.5364 378.702 98.4453 378.702H60.9021C60.5335 378.702 60.1686 378.629 59.8281 378.488C59.4875 378.347 59.1781 378.141 58.9175 377.88C58.6569 377.62 58.4502 377.311 58.3091 376.97C58.1681 376.63 58.0955 376.265 58.0955 375.897V374.335C58.0955 374.335 56.2372 369.641 60.0617 363.852C60.0617 363.852 64.8142 368.383 71.9147 361.287L74.0086 357.496L89.1664 368.574L97.5683 369.607C99.4062 369.833 101.036 369.572 101.981 371.165L101.982 371.166Z" fill="#39384A"/>
<path d="M69.6217 128.169L69.8669 111.83L59.7841 105.549L48.8201 118.951L69.6217 128.169Z" fill="#E9C5BA"/>
<path d="M69.6536 116.915C79.5572 116.915 87.5856 108.892 87.5856 98.9948C87.5856 89.0981 79.5572 81.0751 69.6536 81.0751C59.75 81.0751 51.7215 89.0981 51.7215 98.9948C51.7215 108.892 59.75 116.915 69.6536 116.915Z" fill="#E9C5BA"/>
<path d="M94.1089 236.213L77.4045 349.806H56.4464L59.2332 284.964L60.7001 250.87L56.444 234.641C55.0933 232.055 53.9 229.391 52.8706 226.661C51.0291 221.727 49.5736 215.811 51.7317 213.003C52.5259 211.969 54.5917 211.206 57.3989 210.633C59.3392 210.256 61.2973 209.978 63.2658 209.799C75.6595 208.573 93.2888 209.339 93.2888 209.339L93.7372 224.118L93.986 232.371L94.1089 236.213Z" fill="#39384A"/>
<path d="M39.0975 365.885L51.0914 367.647L63.5984 322.255L45.8965 319.656L39.0975 365.885Z" fill="#E9C5BA"/>
<path d="M80.2261 371.651C80.5072 372.334 80.4059 374.391 80.298 375.125C80.1392 376.204 79.5581 377.175 78.6825 377.826C77.8068 378.477 76.7084 378.753 75.6289 378.595L38.4867 373.135C38.122 373.081 37.7714 372.957 37.4549 372.768C37.1384 372.579 36.8623 372.329 36.6423 372.034C36.4223 371.738 36.2627 371.402 36.1727 371.045C36.0827 370.688 36.064 370.316 36.1177 369.952L36.3449 368.406C36.3449 368.406 35.1909 363.494 39.8157 358.323C39.8157 358.323 43.8578 363.496 51.9163 357.508L54.5401 354.062L67.9241 367.225L76.0863 369.469C77.872 369.959 79.5223 369.939 80.2261 371.651Z" fill="#39384A"/>
<path d="M94.372 217.268L92.0809 236.986L79.5859 278.537L59.0168 346.944L38.2841 343.899L56.8918 246.634L55.0496 229.956C55.0496 229.956 54.4502 228.298 53.762 225.871C52.3971 221.069 50.6844 213.25 52.5685 209.261C52.8034 208.742 53.1318 208.269 53.5372 207.868C54.2781 207.149 55.784 206.714 57.8017 206.482C66.2348 205.53 83.6022 208.254 91.3298 209.591L94.3726 217.268L94.372 217.268Z" fill="#39384A"/>
<path d="M51.1257 115.495L71.4969 125.267C71.4969 125.267 93.0904 189.189 93.0904 192.446C93.0904 195.703 99.2018 197.739 95.535 201.403C91.8681 205.068 102.36 208.172 96.7069 211.098C91.0541 214.023 55.787 230.034 51.8678 228.589C41.0524 224.608 52.3264 209.976 52.3264 209.976C52.3264 209.976 44.1996 203.435 45.4219 200.18C46.6441 196.925 38.0881 134.63 38.0881 134.63L51.1257 115.495Z" fill="#2F672F"/>
<path d="M68.5578 103.287L70.8645 107.9C70.8645 107.9 73.1712 99.6022 76.859 97.7584C80.5468 95.9146 81.0108 93.1458 81.0108 93.1458C81.0108 93.1458 85.6266 99.1362 88.8529 97.7584C92.0791 96.3806 93.4687 95.4533 89.7754 89.9218C86.0822 84.3902 87.0077 87.156 87.0077 87.156C87.0077 87.156 83.7785 82.5434 84.2401 83.929C84.7016 85.3145 81.4724 80.2413 81.4724 81.6238C81.4724 83.0064 79.1657 78.8581 79.1657 80.2407C79.1657 81.6232 69.4785 77.0136 70.8627 78.8575C72.2468 80.7013 62.5584 75.168 57.9486 82.5416C53.3388 89.9152 46.9397 88.5529 49.2152 93.1536C51.4907 97.7542 50.5693 110.202 50.5693 110.202H56.9296C56.9296 110.202 63.484 97.7554 68.559 103.287H68.5578Z" fill="#090814"/>
<path d="M475.845 188.417H212.12C211.019 188.416 209.962 187.978 209.183 187.2C208.404 186.421 207.966 185.366 207.965 184.265V69.6562C207.966 68.5552 208.404 67.4997 209.183 66.7211C209.962 65.9426 211.019 65.5048 212.12 65.5037H475.845C476.946 65.5048 478.003 65.9426 478.782 66.7211C479.561 67.4997 479.999 68.5552 480 69.6562V184.264C479.999 185.365 479.561 186.421 478.782 187.199C478.003 187.978 476.946 188.416 475.845 188.417ZM212.12 67.1648C211.459 67.1656 210.826 67.4283 210.358 67.8954C209.891 68.3625 209.628 68.9957 209.627 69.6562V184.264C209.628 184.925 209.891 185.558 210.358 186.025C210.826 186.492 211.459 186.755 212.12 186.755H475.845C476.505 186.755 477.139 186.492 477.607 186.025C478.074 185.558 478.337 184.925 478.338 184.264V69.6562C478.337 68.9957 478.074 68.3625 477.607 67.8954C477.139 67.4283 476.505 67.1656 475.845 67.1648H212.12Z" fill="#C7C7C7"/>
<path d="M222.924 79.6219C222.263 79.6219 221.629 79.8844 221.161 80.3516C220.694 80.8188 220.431 81.4525 220.431 82.1133C220.431 82.7741 220.694 83.4078 221.161 83.875C221.629 84.3422 222.263 84.6047 222.924 84.6047H257.829C258.49 84.6047 259.124 84.3422 259.592 83.875C260.059 83.4078 260.322 82.7741 260.322 82.1133C260.322 81.4525 260.059 80.8188 259.592 80.3516C259.124 79.8844 258.49 79.6219 257.829 79.6219H222.924Z" fill="#C7C7C7"/>
<path d="M461.877 96.9491V143.15H226.503V118.825C228.133 117.78 229.772 116.738 231.427 115.732C238.493 111.411 246.054 107.369 254.3 105.872C258.198 105.145 262.193 105.095 266.109 105.724C270.245 106.407 274.202 107.831 278.124 109.259C281.989 110.673 285.865 112.134 289.907 112.951C293.847 113.724 297.891 113.804 301.858 113.187C309.426 112.052 316.537 109.013 323.618 106.263C330.743 103.498 338.085 100.886 345.798 100.542C353.411 100.198 360.93 101.995 368.153 104.225C382.881 108.767 397.92 115.504 413.515 110.883C429.35 106.199 443.917 92.6725 461.466 96.6861C461.632 96.7166 461.78 96.8097 461.88 96.9461L461.877 96.9491Z" fill="#F2F2F2"/>
<path d="M461.878 97.7548C461.803 97.8956 461.683 98.0071 461.536 98.0712C461.39 98.1353 461.227 98.1483 461.072 98.1082C458.981 97.6289 456.839 97.4076 454.694 97.4493C437.43 97.7536 424.159 111.641 407.277 113.718C392.059 115.589 377.735 108.194 363.426 104.329C355.993 102.321 348.326 101.256 340.675 102.62C333.083 103.97 325.958 107.074 318.803 109.829C311.914 112.48 304.754 114.946 297.295 115.068C289.094 115.205 281.71 111.827 274.102 109.254C270.146 107.913 266.087 106.853 261.896 106.749C257.811 106.701 253.746 107.329 249.867 108.611C241.784 111.179 234.501 115.755 227.411 120.303C227.289 120.389 227.14 120.429 226.991 120.416C226.838 120.395 226.695 120.329 226.58 120.225C226.466 120.121 226.386 119.985 226.351 119.835C226.316 119.685 226.327 119.528 226.383 119.384C226.44 119.24 226.539 119.117 226.667 119.031L226.991 118.825C228.617 117.779 230.254 116.738 231.906 115.731C238.958 111.41 246.506 107.369 254.731 105.871C258.621 105.145 262.608 105.095 266.515 105.724C270.643 106.406 274.593 107.831 278.504 109.258C282.361 110.673 286.228 112.134 290.263 112.951C294.194 113.723 298.23 113.803 302.189 113.186C309.742 112.052 316.837 109.012 323.903 106.262C331.014 103.498 338.34 100.885 346.035 100.542C353.632 100.198 361.135 101.995 368.344 104.224C383.041 108.766 398.048 115.504 413.61 110.883C429.413 106.198 443.949 92.6719 461.462 96.6855C461.628 96.7162 461.776 96.8092 461.875 96.9455C461.952 97.0663 461.993 97.2065 461.994 97.3497C461.994 97.493 461.954 97.6335 461.878 97.7548Z" fill="#2F672F"/>
<path d="M258.935 109.76C260.834 109.76 262.374 108.221 262.374 106.323C262.374 104.425 260.834 102.886 258.935 102.886C257.035 102.886 255.495 104.425 255.495 106.323C255.495 108.221 257.035 109.76 258.935 109.76Z" fill="#2F672F"/>
<path d="M345.91 105.341C347.81 105.341 349.35 103.802 349.35 101.904C349.35 100.005 347.81 98.4665 345.91 98.4665C344.01 98.4665 342.47 100.005 342.47 101.904C342.47 103.802 344.01 105.341 345.91 105.341Z" fill="#2F672F"/>
<path d="M441.621 108.88C443.52 108.88 445.06 107.341 445.06 105.442C445.06 103.544 443.52 102.005 441.621 102.005C439.721 102.005 438.181 103.544 438.181 105.442C438.181 107.341 439.721 108.88 441.621 108.88Z" fill="#2F672F"/>
<path d="M256.998 162.671C256.337 162.671 255.703 162.934 255.235 163.401C254.767 163.868 254.505 164.502 254.505 165.162C254.505 165.823 254.767 166.457 255.235 166.924C255.703 167.391 256.337 167.654 256.998 167.654H291.902C292.563 167.654 293.198 167.391 293.665 166.924C294.133 166.457 294.395 165.823 294.395 165.162C294.395 164.502 294.133 163.868 293.665 163.401C293.198 162.934 292.563 162.671 291.902 162.671H256.998Z" fill="#C7C7C7"/>
<path d="M234.559 174.298C239.761 174.298 243.978 170.084 243.978 164.886C243.978 159.688 239.761 155.474 234.559 155.474C229.357 155.474 225.14 159.688 225.14 164.886C225.14 170.084 229.357 174.298 234.559 174.298Z" fill="#2F672F"/>
<path d="M341.212 162.671C340.551 162.671 339.917 162.934 339.449 163.401C338.982 163.868 338.719 164.502 338.719 165.162C338.719 165.823 338.982 166.457 339.449 166.924C339.917 167.391 340.551 167.654 341.212 167.654H376.117C376.778 167.654 377.412 167.391 377.879 166.924C378.347 166.457 378.61 165.823 378.61 165.162C378.61 164.502 378.347 163.868 377.879 163.401C377.412 162.934 376.778 162.671 376.117 162.671H341.212Z" fill="#C7C7C7"/>
<path d="M318.773 174.298C323.975 174.298 328.192 170.084 328.192 164.886C328.192 159.688 323.975 155.474 318.773 155.474C313.572 155.474 309.355 159.688 309.355 164.886C309.355 170.084 313.572 174.298 318.773 174.298Z" fill="#2F672F"/>
<path d="M425.427 162.671C424.766 162.671 424.132 162.934 423.664 163.401C423.197 163.868 422.934 164.502 422.934 165.162C422.934 165.823 423.197 166.457 423.664 166.924C424.132 167.391 424.766 167.654 425.427 167.654H460.331C460.993 167.654 461.627 167.391 462.094 166.924C462.562 166.457 462.824 165.823 462.824 165.162C462.824 164.502 462.562 163.868 462.094 163.401C461.627 162.934 460.993 162.671 460.331 162.671H425.427Z" fill="#C7C7C7"/>
<path d="M402.988 174.298C408.19 174.298 412.407 170.084 412.407 164.886C412.407 159.688 408.19 155.474 402.988 155.474C397.786 155.474 393.57 159.688 393.57 164.886C393.57 170.084 397.786 174.298 402.988 174.298Z" fill="#2F672F"/>
<path d="M249.473 35.2935H119.361C116.825 35.2935 114.77 33.83 114.767 32.0269V3.76718C114.767 1.96407 116.825 0.50061 119.361 0.50061H249.473C252.01 0.50061 254.065 1.96407 254.068 3.76718V32.0263C254.066 33.8294 252.01 35.2911 249.473 35.2935ZM119.361 1.80591C117.839 1.80591 116.604 2.68411 116.604 3.76597V32.0251C116.604 33.107 117.839 33.984 119.361 33.9852H249.473C250.995 33.9852 252.231 33.107 252.231 32.0251V3.76718C252.231 2.68531 250.996 1.80832 249.473 1.80712L119.361 1.80591Z" fill="#C7C7C7"/>
<path d="M148.781 16.5602C148.047 16.5612 147.343 16.8532 146.824 17.3721C146.304 17.891 146.012 18.5945 146.011 19.3284V38.7068C146.012 39.4406 146.304 40.1442 146.824 40.6631C147.343 41.182 148.047 41.474 148.781 41.4749H247.955C248.689 41.474 249.393 41.182 249.913 40.6631C250.432 40.1442 250.724 39.4406 250.725 38.7068V19.3284C250.724 18.5945 250.432 17.891 249.913 17.3721C249.393 16.8532 248.689 16.5612 247.955 16.5602H148.781Z" fill="#2F672F"/>
<path d="M162.633 35.3851C165.999 35.3851 168.728 32.6583 168.728 29.2947C168.728 25.931 165.999 23.2042 162.633 23.2042C159.267 23.2042 156.538 25.931 156.538 29.2947C156.538 32.6583 159.267 35.3851 162.633 35.3851Z" fill="white"/>
<path d="M190.408 26.6505C189.747 26.6505 189.113 26.913 188.645 27.3802C188.178 27.8475 187.915 28.4812 187.915 29.1419C187.915 29.8027 188.178 30.4364 188.645 30.9036C189.113 31.3708 189.747 31.6333 190.408 31.6333H225.312C225.974 31.6333 226.608 31.3708 227.075 30.9036C227.543 30.4364 227.806 29.8027 227.806 29.1419C227.806 28.4812 227.543 27.8475 227.075 27.3802C226.608 26.913 225.974 26.6505 225.312 26.6505H190.408Z" fill="white"/>
<path d="M313.565 251.482H183.453C180.916 251.482 178.861 250.019 178.858 248.216V219.956C178.858 218.153 180.916 216.69 183.453 216.69H313.565C316.101 216.69 318.156 218.153 318.159 219.956V248.215C318.157 250.018 316.101 251.48 313.565 251.482ZM183.453 217.995C181.931 217.995 180.695 218.873 180.695 219.955V248.214C180.695 249.296 181.93 250.173 183.453 250.174H313.565C315.087 250.174 316.322 249.296 316.322 248.214V219.956C316.322 218.874 315.087 217.997 313.565 217.996L183.453 217.995Z" fill="#C7C7C7"/>
<path d="M212.873 232.75C212.139 232.751 211.435 233.043 210.916 233.562C210.396 234.081 210.104 234.784 210.103 235.518V254.896C210.104 255.63 210.396 256.334 210.916 256.853C211.435 257.372 212.139 257.664 212.873 257.665H312.047C312.781 257.664 313.485 257.372 314.005 256.853C314.524 256.334 314.816 255.63 314.817 254.896V235.518C314.816 234.784 314.524 234.081 314.005 233.562C313.485 233.043 312.781 232.751 312.047 232.75H212.873Z" fill="#2F672F"/>
<path d="M226.724 251.574C230.09 251.574 232.819 248.847 232.819 245.484C232.819 242.12 230.09 239.393 226.724 239.393C223.358 239.393 220.63 242.12 220.63 245.484C220.63 248.847 223.358 251.574 226.724 251.574Z" fill="white"/>
<path d="M254.499 242.84C253.838 242.84 253.204 243.103 252.736 243.57C252.269 244.037 252.006 244.671 252.006 245.331C252.006 245.992 252.269 246.626 252.736 247.093C253.204 247.56 253.838 247.823 254.499 247.823H289.404C290.065 247.823 290.699 247.56 291.167 247.093C291.634 246.626 291.897 245.992 291.897 245.331C291.897 244.671 291.634 244.037 291.167 243.57C290.699 243.103 290.065 242.84 289.404 242.84H254.499Z" fill="white"/>
<path d="M137.828 190.051L108.648 168.839C108.142 168.47 107.804 167.917 107.706 167.299C107.609 166.682 107.76 166.051 108.127 165.545C109.63 152.1 121.895 138.935 137.012 125.845C137.38 125.34 137.934 125.001 138.551 124.904C139.169 124.807 139.801 124.958 140.307 125.325L169.486 146.538C169.991 146.906 170.33 147.46 170.427 148.077C170.525 148.695 170.374 149.326 170.006 149.831C157.743 162.283 147.912 175.456 141.123 189.531C140.755 190.036 140.201 190.374 139.583 190.472C138.966 190.569 138.334 190.418 137.828 190.051Z" fill="#C7C7C7"/>
<path d="M168.167 147.588L159.284 141.131C153.867 137.218 147.122 135.606 140.521 136.646C133.921 137.687 128.001 141.296 124.056 146.685L109.925 166.103C109.716 166.391 109.63 166.75 109.685 167.101C109.74 167.453 109.933 167.768 110.22 167.978L138.42 188.474C138.708 188.683 139.068 188.769 139.419 188.713C139.771 188.657 140.086 188.464 140.295 188.176C146.092 173.655 155.762 160.875 168.463 149.46C168.671 149.172 168.757 148.814 168.702 148.463C168.646 148.112 168.454 147.797 168.167 147.588Z" fill="white"/>
<path d="M133.118 175.257L127.333 171.052C127.257 170.997 127.171 170.957 127.08 170.935C126.989 170.913 126.894 170.909 126.801 170.924C126.708 170.938 126.619 170.971 126.539 171.02C126.459 171.069 126.39 171.133 126.334 171.209C126.279 171.285 126.24 171.371 126.218 171.463C126.196 171.554 126.192 171.648 126.206 171.741C126.221 171.834 126.254 171.923 126.303 172.003C126.352 172.083 126.416 172.153 126.492 172.208L132.276 176.413C132.43 176.524 132.621 176.57 132.809 176.541C132.996 176.511 133.164 176.408 133.275 176.255C133.387 176.102 133.433 175.911 133.403 175.723C133.374 175.536 133.271 175.368 133.118 175.257Z" fill="#ACACAC"/>
<path d="M142.205 177.001L129.502 167.767C129.349 167.655 129.157 167.609 128.97 167.639C128.783 167.668 128.615 167.771 128.503 167.924C128.392 168.078 128.346 168.269 128.375 168.456C128.405 168.643 128.508 168.811 128.661 168.923L141.364 178.157C141.517 178.269 141.709 178.315 141.896 178.285C142.083 178.256 142.251 178.153 142.363 178C142.474 177.846 142.52 177.655 142.491 177.468C142.461 177.281 142.358 177.113 142.205 177.001Z" fill="#ACACAC"/>
<path d="M120.667 161.7C118.166 162.417 116.721 165.024 117.438 167.524C118.156 170.023 120.765 171.469 123.266 170.753C125.766 170.036 127.212 167.429 126.494 164.929C125.777 162.43 123.168 160.984 120.667 161.7Z" fill="#2F672F"/>
<path d="M140.001 167.46L124.399 156.116C124.245 156.028 124.064 155.999 123.89 156.036C123.717 156.073 123.563 156.173 123.459 156.317C123.355 156.46 123.307 156.637 123.325 156.813C123.343 156.989 123.426 157.153 123.558 157.272L139.16 168.616C139.314 168.705 139.495 168.734 139.669 168.697C139.843 168.66 139.997 168.56 140.101 168.416C140.206 168.273 140.253 168.095 140.235 167.919C140.216 167.742 140.133 167.579 140.001 167.46Z" fill="#ACACAC"/>
<path d="M148.36 168.674L126.584 152.844C126.43 152.753 126.247 152.722 126.071 152.758C125.896 152.794 125.74 152.894 125.634 153.039C125.529 153.183 125.481 153.362 125.501 153.541C125.52 153.719 125.606 153.883 125.741 154.002L147.519 169.831C147.673 169.92 147.854 169.948 148.028 169.911C148.202 169.874 148.356 169.775 148.46 169.631C148.565 169.487 148.612 169.31 148.594 169.134C148.575 168.957 148.492 168.793 148.36 168.674Z" fill="#ACACAC"/>
<path d="M145.703 159.624L130.101 148.28C129.947 148.192 129.766 148.163 129.593 148.2C129.42 148.238 129.266 148.337 129.162 148.481C129.057 148.624 129.01 148.801 129.028 148.977C129.046 149.153 129.129 149.317 129.26 149.436L144.863 160.78C145.017 160.869 145.198 160.898 145.372 160.861C145.545 160.824 145.699 160.724 145.804 160.58C145.908 160.437 145.956 160.259 145.937 160.083C145.919 159.906 145.835 159.743 145.703 159.624Z" fill="#ACACAC"/>
<path d="M160.284 153.496L144.682 142.152C144.528 142.064 144.347 142.035 144.174 142.072C144 142.109 143.847 142.209 143.742 142.353C143.638 142.496 143.59 142.673 143.609 142.849C143.627 143.025 143.71 143.189 143.841 143.308L159.443 154.652C159.597 154.741 159.779 154.77 159.952 154.733C160.126 154.696 160.28 154.596 160.384 154.452C160.489 154.309 160.536 154.131 160.518 153.955C160.499 153.778 160.416 153.615 160.284 153.496Z" fill="#2F672F"/>
<path d="M154.063 160.839L132.286 145.009C132.132 144.917 131.949 144.886 131.774 144.922C131.598 144.958 131.442 145.058 131.337 145.203C131.231 145.347 131.184 145.527 131.203 145.705C131.223 145.883 131.308 146.047 131.443 146.166L153.222 161.995C153.376 162.084 153.557 162.112 153.731 162.075C153.905 162.038 154.058 161.939 154.163 161.795C154.267 161.651 154.315 161.474 154.296 161.298C154.278 161.121 154.195 160.957 154.063 160.839Z" fill="#ACACAC"/>
<path d="M113.198 171.82C118.254 170.327 123.123 171.724 124.073 174.939C125.023 178.155 121.695 181.97 116.64 183.463C114.628 184.087 112.495 184.22 110.421 183.852L88.9199 189.906L86.2919 179.762L107.767 174.871C109.309 173.435 111.172 172.389 113.201 171.82L113.198 171.82Z" fill="#E9C5BA"/>
<path d="M75.1685 135.871L71.7984 176.159L101.984 176.483L107.843 185.498C107.843 185.498 71.2553 206.668 60.2691 195.851C49.2829 185.034 44.3955 139.513 54.163 131.72C63.9305 123.927 75.1685 135.87 75.1685 135.87V135.871Z" fill="#2F672F"/>
</g>
<defs>
<clipPath id="clip0_45_85">
<rect width="480" height="381" fill="white" transform="translate(0 0.5)"/>
</clipPath>
</defs>
</svg>
