<svg viewBox="0 0 24 24" fill="none" xmlns="http://www.w3.org/2000/svg">
<g clip-path="url(#clip0_45_187)">
<path d="M22.9855 10.9112H22.5125V8.85084C22.5125 7.11296 21.0986 5.69922 19.3607 5.69922H17.2136V2.82718C17.2136 1.76853 16.3523 0.907166 15.2936 0.907166H2.63224C1.18077 0.907166 0 2.08793 0 3.53921V3.78321V4.02671V19.9412C0 21.6791 1.41399 23.0928 3.15187 23.0928H19.3607C21.0986 23.0928 22.5125 21.6791 22.5125 19.9412V17.9274H22.9855C23.5447 17.9274 23.9999 17.4723 23.9999 16.913V11.9255C23.9999 11.3663 23.5447 10.9112 22.9855 10.9112ZM0.95998 3.78316V3.53917C0.95998 2.61716 1.71019 1.86715 2.63224 1.86715H15.2936C15.8231 1.86715 16.2536 2.2977 16.2536 2.82713V5.69912H2.63224C1.71019 5.69912 0.95998 4.94891 0.95998 4.02661V3.78316ZM21.5526 19.9412C21.5526 21.1496 20.5694 22.1328 19.3607 22.1328H3.15187C1.94321 22.1328 0.95998 21.1496 0.95998 19.9412V6.05812C1.41501 6.43344 1.99772 6.65915 2.63224 6.65915H16.7336H17.2136H19.3607C20.5693 6.65915 21.5526 7.64234 21.5526 8.85079V10.9112H16.3555L14.4984 14.4193L16.3555 17.9274H21.5526V19.9412ZM23.0399 16.913C23.0399 16.943 23.0155 16.9674 22.9855 16.9674H16.9335L15.5845 14.4193L16.9335 11.8712H22.9855C23.0155 11.8712 23.0399 11.8956 23.0399 11.9255V16.913Z" fill="currentColor" stroke="currentColor" stroke-width="0.639997"/>
<path d="M18.8568 12.7759C17.9507 12.7759 17.2134 13.5132 17.2134 14.4193C17.2134 15.3254 17.9507 16.0627 18.8568 16.0627C19.7631 16.0627 20.5005 15.3254 20.5005 14.4193C20.5005 13.5132 19.7631 12.7759 18.8568 12.7759ZM18.8568 15.1028C18.4799 15.1028 18.1734 14.7962 18.1734 14.4193C18.1734 14.0424 18.4799 13.7359 18.8568 13.7359C19.2337 13.7359 19.5405 14.0425 19.5405 14.4193C19.5405 14.7962 19.2337 15.1028 18.8568 15.1028Z" fill="currentColor" stroke="currentColor" stroke-width="0.639997"/>
<path d="M11.2564 19.0924H2.80652V20.0524H11.2564V19.0924Z" fill="currentColor" stroke="currentColor" stroke-width="0.639997"/>
</g>
<defs>
<clipPath id="clip0_45_187">
<rect width="24" height="24" fill="white"/>
</clipPath>
</defs>
</svg>
